<svg width="101" height="23" viewBox="0 0 101 23" fill="none" xmlns="http://www.w3.org/2000/svg">
<g id="Logo" clip-path="url(#clip0_5_13)">
<path id="Vector" d="M31.647 3.56064C31.4636 2.88813 31.1057 2.27504 30.6091 1.7824C30.1126 1.28976 29.4945 0.934778 28.8166 0.7528C26.3349 0.0813599 16.3465 0.0813599 16.3465 0.0813599C16.3465 0.0813599 6.35807 0.101707 3.87635 0.773147C3.19844 0.955125 2.58042 1.31011 2.08382 1.80274C1.58723 2.29538 1.2294 2.90848 1.04596 3.58099C0.295288 7.95553 0.0040451 14.6211 1.06647 18.8207C1.24991 19.4932 1.60774 20.1063 2.10433 20.5989C2.60093 21.0915 3.21895 21.4465 3.89686 21.6285C6.37858 22.2999 16.367 22.2999 16.367 22.2999C16.367 22.2999 26.3554 22.2999 28.8371 21.6285C29.515 21.4465 30.1331 21.0915 30.6297 20.5989C31.1263 20.1063 31.4841 19.4932 31.6675 18.8207C32.4592 14.44 32.7033 7.77851 31.647 3.56064Z" fill="#FF0000"/>
<path id="Vector_2" d="M13.1675 15.9518L21.4536 11.1907L13.1675 6.42957V15.9518Z" fill="white"/>
<g id="Group">
<path id="Vector_3" d="M46.7425 20.2855C46.1066 19.8583 45.6554 19.2072 45.3888 18.3119C45.1222 17.4167 44.9991 16.2366 44.9991 14.7513V12.7369C44.9991 11.2516 45.1427 10.0308 45.4503 9.13557C45.758 8.21997 46.2297 7.56887 46.886 7.16194C47.5424 6.755 48.3833 6.53119 49.4293 6.53119C50.4548 6.53119 51.2957 6.73466 51.911 7.16194C52.5263 7.58922 52.998 8.24031 53.2852 9.13557C53.5723 10.0308 53.7159 11.2313 53.7159 12.7166V14.7309C53.7159 16.2162 53.5723 17.3963 53.2852 18.2916C52.998 19.1868 52.5468 19.8379 51.911 20.2652C51.2752 20.6721 50.4138 20.8959 49.3472 20.8959C48.2397 20.9163 47.3783 20.6925 46.7425 20.2855ZM50.2907 18.1085C50.4753 17.6608 50.5573 16.908 50.5573 15.8907V11.5568C50.5573 10.5598 50.4753 9.82735 50.2907 9.37973C50.1061 8.91175 49.7985 8.68794 49.3678 8.68794C48.937 8.68794 48.6499 8.91175 48.4653 9.37973C48.2807 9.8477 48.1987 10.5598 48.1987 11.5568V15.8907C48.1987 16.908 48.2807 17.6608 48.4448 18.1085C48.6089 18.5561 48.9165 18.7799 49.3678 18.7799C49.7985 18.7799 50.1061 18.5561 50.2907 18.1085ZM95.2488 14.7919V15.5041L95.3309 17.5184C95.3924 17.966 95.4949 18.2916 95.659 18.495C95.8231 18.6985 96.0897 18.8002 96.4384 18.8002C96.9102 18.8002 97.2383 18.6171 97.4024 18.2509C97.587 17.8846 97.669 17.2742 97.6895 16.44L100.417 16.6028C100.438 16.7249 100.438 16.8877 100.438 17.0911C100.438 18.373 100.089 19.3293 99.3714 19.96C98.6535 20.5907 97.669 20.9163 96.3769 20.9163C94.8181 20.9163 93.7311 20.428 93.1158 19.4717C92.5005 18.5154 92.1723 17.0097 92.1723 14.9954V12.5335C92.2421 9.07453 92.8553 6.54136 96.4589 6.53119C97.546 6.53119 98.3664 6.73466 98.9406 7.12124C99.5149 7.50783 99.9251 8.11823 100.171 8.95245C100.417 9.78666 100.52 10.9261 100.52 12.391V14.7716H95.2488V14.7919ZM95.659 8.9321C95.4949 9.13557 95.3924 9.44077 95.3309 9.88839C95.2693 10.336 95.2488 11.9231 95.2488 11.9231V12.92H97.546V11.9231C97.546 12.92 97.5255 10.3564 97.4639 9.88839C97.4024 9.42042 97.2998 9.09487 97.1358 8.91175C96.9717 8.72863 96.7256 8.6269 96.3974 8.6269C96.0487 8.64725 95.8026 8.74898 95.659 8.9321ZM39.0717 14.5274L35.4824 1.66833H38.6205C38.6205 1.66833 40.0869 8.11823 40.5894 11.1499H40.6715C41.2417 7.93104 42.6815 1.66833 42.6815 1.66833H45.8195L42.1892 14.5071V20.6721H39.0922V14.5274H39.0717Z" fill="white"/>
<path id="A" d="M63.8891 6.79565V20.6924H61.4279L61.1613 18.9833H61.0998C60.4229 20.2652 59.4179 20.9163 58.0848 20.9163C55.6707 20.9101 55.4021 18.8816 55.3774 17.1725V6.79565H58.536V16.9893C58.536 17.5997 58.5975 18.0474 58.7411 18.3119C59.0323 18.8775 59.7871 18.7331 60.1973 18.4543C60.4341 18.2955 60.625 18.0781 60.7511 17.8236V6.79565H63.8891Z" fill="white"/>
<path id="A_2" d="M79.9248 6.79565V20.6924H77.4636L77.1969 18.9833H77.1354C76.4586 20.2652 75.4536 20.9163 74.1204 20.9163C71.7064 20.9101 71.4377 18.8816 71.4131 17.1725V6.79565H74.5716V16.9893C74.5716 17.5997 74.6332 18.0474 74.7767 18.3119C75.068 18.8775 75.8228 18.7331 76.233 18.4543C76.4698 18.2955 76.6607 18.0781 76.7867 17.8236V6.79565H79.9248Z" fill="white"/>
<path id="Vector_4" d="M72.462 4.1913H69.3239V20.6925H66.2474V4.1913H63.1094V1.66831H72.4415V4.1913H72.462ZM90.4904 9.01346C90.3058 8.13856 89.9981 7.50781 89.5674 7.10087C89.1367 6.71429 88.5624 6.51082 87.8035 6.51082C87.2264 6.50956 86.6621 6.67963 86.1832 6.99914C85.6705 7.32469 85.3013 7.75197 85.0142 8.28098H84.9936V0.956177H81.9582V20.6721H84.5629L84.8911 19.3496H84.9526C85.2034 19.8153 85.5798 20.2028 86.0397 20.4686C86.5319 20.7332 87.0652 20.8756 87.66 20.8756C88.7265 20.8756 89.5059 20.3873 90.0186 19.4106C90.5109 18.434 90.7775 16.908 90.7775 14.853V12.6555C90.7775 11.1092 90.6749 9.88837 90.4904 9.01346ZM87.5984 14.6902C87.5984 15.7075 87.5574 16.501 87.4754 17.0707C87.3933 17.6405 87.2498 18.0474 87.0447 18.2915C86.8396 18.5357 86.5729 18.6578 86.2448 18.6578C85.6089 18.6374 85.248 18.3526 84.9936 17.9253V10.0308C85.0962 9.64421 85.2808 9.33901 85.5474 9.09485C85.9986 8.59229 86.7698 8.58618 87.1267 9.09485C87.3113 9.33901 87.4138 9.76629 87.4959 10.3563C87.5574 10.9464 87.5984 11.7806 87.5984 12.8793V14.6902Z" fill="white"/>
</g>
</g>
<defs>
<clipPath id="clip0_5_13">
<rect width="100.91" height="22.3813" fill="white"/>
</clipPath>
</defs>
</svg>
