<svg width="32" height="32" viewBox="0 0 32 32" fill="none" xmlns="http://www.w3.org/2000/svg">
<g clip-path="url(#clip0_5_60)">
<path d="M20.6494 18.6512H19.5969L19.2239 18.2915C20.5295 16.7727 21.3155 14.801 21.3155 12.6562C21.3155 7.87347 17.4387 3.9967 12.656 3.9967C7.87335 3.9967 3.99658 7.87347 3.99658 12.6562C3.99658 17.4388 7.87335 21.3156 12.656 21.3156C14.8009 21.3156 16.7726 20.5296 18.2913 19.224L18.651 19.597V20.6495L25.3122 27.2973L27.2972 25.3123L20.6494 18.6512ZM12.656 18.6512C9.3388 18.6512 6.66103 15.9734 6.66103 12.6562C6.66103 9.33892 9.3388 6.66115 12.656 6.66115C15.9733 6.66115 18.651 9.33892 18.651 12.6562C18.651 15.9734 15.9733 18.6512 12.656 18.6512Z" fill="#8F8F8F"/>
</g>
<defs>
<clipPath id="clip0_5_60">
<rect width="31.9734" height="31.9734" fill="white"/>
</clipPath>
</defs>
</svg>
