<svg width="38" height="38" viewBox="0 0 38 38" fill="none" xmlns="http://www.w3.org/2000/svg">
<rect width="38" height="38" rx="19" fill="#2A2A2A"/>
<path d="M19.0001 21C18.1667 21 17.4584 20.7083 16.8751 20.125C16.2917 19.5417 16.0001 18.8333 16.0001 18V12C16.0001 11.1667 16.2917 10.4583 16.8751 9.875C17.4584 9.29167 18.1667 9 19.0001 9C19.8334 9 20.5417 9.29167 21.1251 9.875C21.7084 10.4583 22.0001 11.1667 22.0001 12V18C22.0001 18.8333 21.7084 19.5417 21.1251 20.125C20.5417 20.7083 19.8334 21 19.0001 21ZM19.0001 28C18.7167 28 18.4791 27.904 18.2871 27.712C18.0951 27.52 17.9994 27.2827 18.0001 27V24.9C16.4501 24.7 15.1334 24.0583 14.0501 22.975C12.9667 21.8917 12.3084 20.5917 12.0751 19.075C12.0251 18.7917 12.1001 18.5417 12.3001 18.325C12.5001 18.1083 12.7667 18 13.1001 18C13.3334 18 13.5417 18.0873 13.7251 18.262C13.9084 18.4367 14.0251 18.6493 14.0751 18.9C14.2917 20.0667 14.8584 21.0417 15.7751 21.825C16.6917 22.6083 17.7667 23 19.0001 23C20.2334 23 21.3084 22.6083 22.2251 21.825C23.1417 21.0417 23.7084 20.0667 23.9251 18.9C23.9751 18.65 24.0957 18.4373 24.2871 18.262C24.4784 18.0867 24.6911 17.9993 24.9251 18C25.2417 18 25.5001 18.1083 25.7001 18.325C25.9001 18.5417 25.9751 18.7917 25.9251 19.075C25.6917 20.5917 25.0334 21.8917 23.9501 22.975C22.8667 24.0583 21.5501 24.7 20.0001 24.9V27C20.0001 27.2833 19.9041 27.521 19.7121 27.713C19.5201 27.905 19.2827 28.0007 19.0001 28Z" fill="white"/>
</svg>
